# xmcd
#
# Track frame offsets: 
#        150
#        24978
#        46370
#        64765
#        80788
#        98176
#        112968
#        141380
#        162545
#        174378
#        206453
#
# Disc length: 2961 seconds
#
# Revision: 0
# Processed by: cddbd v1.5.2PL0 Copyright (c) Steve Scherf et al.
# Submitted via: ExactAudioCopy v0.95b4
#
DISCID=950b8f0b
DTITLE=Cowboy Junkies - At The End Of All Paths Taken
DYEAR=2007
DGENRE=Folk
TTITLE0=brand new world
TTITLE1=still lost
TTITLE2=cutting board blues
TTITLE3=spiral down
TTITLE4=my little basquiat
TTITLE5=someday soon
TTITLE6=follower 2
TTITLE7=it doesn't really matter anyway
TTITLE8=blue eyed saviour
TTITLE9=mountain
TTITLE10=my only guarantee
EXTD=
EXTT0=
EXTT1=
EXTT2=
EXTT3=
EXTT4=
EXTT5=
EXTT6=
EXTT7=
EXTT8=
EXTT9=
EXTT10=
PLAYORDER=
